<mxfile host="app.diagrams.net" agent="Mozilla/5.0 (Windows NT 10.0; Win64; x64) AppleWebKit/537.36 (KHTML, like Gecko) Chrome/131.0.0.0 Safari/537.36" version="24.8.6">
  <diagram name="Сторінка-1" id="5CR9JEFY3DmvR0EiIWJa">
    <mxGraphModel dx="1050" dy="530" grid="1" gridSize="10" guides="1" tooltips="1" connect="1" arrows="1" fold="1" page="1" pageScale="1" pageWidth="827" pageHeight="1169" math="0" shadow="0">
      <root>
        <mxCell id="0" />
        <mxCell id="1" parent="0" />
        <mxCell id="12u2VAW0d1SDzYXJ_6Ww-1" value="&lt;font style=&quot;font-size: 14px;&quot;&gt;End&lt;/font&gt;" style="ellipse;whiteSpace=wrap;html=1;" vertex="1" parent="1">
          <mxGeometry x="354" y="670" width="120" height="50" as="geometry" />
        </mxCell>
        <mxCell id="12u2VAW0d1SDzYXJ_6Ww-2" style="edgeStyle=orthogonalEdgeStyle;rounded=0;orthogonalLoop=1;jettySize=auto;html=1;exitX=0.5;exitY=1;exitDx=0;exitDy=0;entryX=0.5;entryY=0;entryDx=0;entryDy=0;" edge="1" parent="1" source="12u2VAW0d1SDzYXJ_6Ww-3" target="12u2VAW0d1SDzYXJ_6Ww-22">
          <mxGeometry relative="1" as="geometry">
            <mxPoint x="414" y="130" as="targetPoint" />
          </mxGeometry>
        </mxCell>
        <mxCell id="12u2VAW0d1SDzYXJ_6Ww-3" value="&lt;font style=&quot;font-size: 14px;&quot;&gt;Start&lt;/font&gt;" style="ellipse;whiteSpace=wrap;html=1;" vertex="1" parent="1">
          <mxGeometry x="354" y="40" width="120" height="50" as="geometry" />
        </mxCell>
        <mxCell id="12u2VAW0d1SDzYXJ_6Ww-24" style="edgeStyle=orthogonalEdgeStyle;rounded=0;orthogonalLoop=1;jettySize=auto;html=1;exitX=0.5;exitY=1;exitDx=0;exitDy=0;entryX=0.5;entryY=0;entryDx=0;entryDy=0;" edge="1" parent="1" source="12u2VAW0d1SDzYXJ_6Ww-22" target="12u2VAW0d1SDzYXJ_6Ww-23">
          <mxGeometry relative="1" as="geometry" />
        </mxCell>
        <mxCell id="12u2VAW0d1SDzYXJ_6Ww-22" value="&lt;font style=&quot;font-size: 14px;&quot;&gt;double vnesok, percent&lt;/font&gt;&lt;div style=&quot;font-size: 14px;&quot;&gt;&lt;font style=&quot;font-size: 14px;&quot;&gt;int time&lt;/font&gt;&lt;/div&gt;" style="shape=parallelogram;perimeter=parallelogramPerimeter;whiteSpace=wrap;html=1;fixedSize=1;" vertex="1" parent="1">
          <mxGeometry x="347" y="130" width="134" height="60" as="geometry" />
        </mxCell>
        <mxCell id="12u2VAW0d1SDzYXJ_6Ww-26" style="edgeStyle=orthogonalEdgeStyle;rounded=0;orthogonalLoop=1;jettySize=auto;html=1;exitX=0.5;exitY=1;exitDx=0;exitDy=0;entryX=0.5;entryY=0;entryDx=0;entryDy=0;" edge="1" parent="1" source="12u2VAW0d1SDzYXJ_6Ww-23" target="12u2VAW0d1SDzYXJ_6Ww-25">
          <mxGeometry relative="1" as="geometry" />
        </mxCell>
        <mxCell id="12u2VAW0d1SDzYXJ_6Ww-23" value="&lt;font style=&quot;font-size: 14px;&quot;&gt;input&lt;/font&gt;&lt;div style=&quot;font-size: 14px;&quot;&gt;&lt;font style=&quot;font-size: 14px;&quot;&gt;vnesok,&amp;nbsp;&lt;/font&gt;&lt;/div&gt;&lt;div style=&quot;font-size: 14px;&quot;&gt;&lt;font style=&quot;font-size: 14px;&quot;&gt;time, percent&lt;/font&gt;&lt;/div&gt;" style="shape=parallelogram;perimeter=parallelogramPerimeter;whiteSpace=wrap;html=1;fixedSize=1;" vertex="1" parent="1">
          <mxGeometry x="354" y="250" width="120" height="60" as="geometry" />
        </mxCell>
        <mxCell id="12u2VAW0d1SDzYXJ_6Ww-29" style="edgeStyle=orthogonalEdgeStyle;rounded=0;orthogonalLoop=1;jettySize=auto;html=1;exitX=1;exitY=0.5;exitDx=0;exitDy=0;entryX=0;entryY=0.5;entryDx=0;entryDy=0;" edge="1" parent="1" source="12u2VAW0d1SDzYXJ_6Ww-25" target="12u2VAW0d1SDzYXJ_6Ww-28">
          <mxGeometry relative="1" as="geometry" />
        </mxCell>
        <mxCell id="12u2VAW0d1SDzYXJ_6Ww-30" value="Yes" style="edgeLabel;html=1;align=center;verticalAlign=middle;resizable=0;points=[];" vertex="1" connectable="0" parent="12u2VAW0d1SDzYXJ_6Ww-29">
          <mxGeometry x="-0.4353" relative="1" as="geometry">
            <mxPoint as="offset" />
          </mxGeometry>
        </mxCell>
        <mxCell id="12u2VAW0d1SDzYXJ_6Ww-32" style="edgeStyle=orthogonalEdgeStyle;rounded=0;orthogonalLoop=1;jettySize=auto;html=1;exitX=0.5;exitY=1;exitDx=0;exitDy=0;entryX=0.5;entryY=0;entryDx=0;entryDy=0;" edge="1" parent="1" source="12u2VAW0d1SDzYXJ_6Ww-25" target="12u2VAW0d1SDzYXJ_6Ww-31">
          <mxGeometry relative="1" as="geometry" />
        </mxCell>
        <mxCell id="12u2VAW0d1SDzYXJ_6Ww-36" value="No" style="edgeLabel;html=1;align=center;verticalAlign=middle;resizable=0;points=[];" vertex="1" connectable="0" parent="12u2VAW0d1SDzYXJ_6Ww-32">
          <mxGeometry x="-0.2654" y="-1" relative="1" as="geometry">
            <mxPoint as="offset" />
          </mxGeometry>
        </mxCell>
        <mxCell id="12u2VAW0d1SDzYXJ_6Ww-25" value="&lt;font style=&quot;font-size: 14px;&quot;&gt;vnesok&amp;lt;=2500 || time&amp;lt;=30 || percent&amp;lt;=20&lt;/font&gt;" style="rhombus;whiteSpace=wrap;html=1;" vertex="1" parent="1">
          <mxGeometry x="349" y="340" width="129" height="129" as="geometry" />
        </mxCell>
        <mxCell id="12u2VAW0d1SDzYXJ_6Ww-37" style="edgeStyle=orthogonalEdgeStyle;rounded=0;orthogonalLoop=1;jettySize=auto;html=1;exitX=0.5;exitY=1;exitDx=0;exitDy=0;entryX=1;entryY=0.5;entryDx=0;entryDy=0;" edge="1" parent="1" source="12u2VAW0d1SDzYXJ_6Ww-28" target="12u2VAW0d1SDzYXJ_6Ww-1">
          <mxGeometry relative="1" as="geometry" />
        </mxCell>
        <mxCell id="12u2VAW0d1SDzYXJ_6Ww-28" value="&lt;font style=&quot;font-size: 14px;&quot;&gt;Incorrect value&lt;/font&gt;" style="shape=parallelogram;perimeter=parallelogramPerimeter;whiteSpace=wrap;html=1;fixedSize=1;" vertex="1" parent="1">
          <mxGeometry x="570" y="374.5" width="120" height="60" as="geometry" />
        </mxCell>
        <mxCell id="12u2VAW0d1SDzYXJ_6Ww-34" style="edgeStyle=orthogonalEdgeStyle;rounded=0;orthogonalLoop=1;jettySize=auto;html=1;exitX=0.5;exitY=1;exitDx=0;exitDy=0;entryX=0.5;entryY=0;entryDx=0;entryDy=0;" edge="1" parent="1" source="12u2VAW0d1SDzYXJ_6Ww-31" target="12u2VAW0d1SDzYXJ_6Ww-33">
          <mxGeometry relative="1" as="geometry" />
        </mxCell>
        <mxCell id="12u2VAW0d1SDzYXJ_6Ww-31" value="&lt;font style=&quot;font-size: 14px;&quot;&gt;calculating prof and sum&lt;/font&gt;" style="rounded=1;whiteSpace=wrap;html=1;" vertex="1" parent="1">
          <mxGeometry x="354" y="500" width="120" height="60" as="geometry" />
        </mxCell>
        <mxCell id="12u2VAW0d1SDzYXJ_6Ww-35" style="edgeStyle=orthogonalEdgeStyle;rounded=0;orthogonalLoop=1;jettySize=auto;html=1;exitX=0.5;exitY=1;exitDx=0;exitDy=0;entryX=0.5;entryY=0;entryDx=0;entryDy=0;" edge="1" parent="1" source="12u2VAW0d1SDzYXJ_6Ww-33" target="12u2VAW0d1SDzYXJ_6Ww-1">
          <mxGeometry relative="1" as="geometry" />
        </mxCell>
        <mxCell id="12u2VAW0d1SDzYXJ_6Ww-33" value="&lt;font style=&quot;font-size: 14px;&quot;&gt;prof, sum&lt;/font&gt;" style="shape=parallelogram;perimeter=parallelogramPerimeter;whiteSpace=wrap;html=1;fixedSize=1;" vertex="1" parent="1">
          <mxGeometry x="354" y="585" width="120" height="60" as="geometry" />
        </mxCell>
      </root>
    </mxGraphModel>
  </diagram>
</mxfile>
